<svg xmlns="http://www.w3.org/2000/svg" viewBox="0 0 800 800" style="enable-background:new 0 0 800 800" xml:space="preserve"><path d="m353.275 573.7-29.3-79.825s-47.8 53.275-119.275 53.275c-63.425 0-108.325-55.075-108.325-143.225 0-112.775 56.9-153.125 112.875-153.125 80.6 0 106.125 52.225 128.125 119.3l29.025 91.675C395.425 550.8 450.525 622.3 609.225 622.3 722.925 622.3 800 587.525 800 495.6c0-74.2-42.425-112.775-121.1-131.1l-58.6-12.775c-40.6-9.275-52.6-25.8-52.6-53.275 0-31.225 24.625-49.6 65.1-49.6 44.175 0 67.6 16.525 71.625 56l91.525-11.1c-7.425-82.525-64.6-116.4-158.075-116.4-82.7 0-163.3 31.275-163.3 131.125 0 62.5 30.1 101.925 106.125 120.175l62.1 14.725c46.625 11.075 62.1 30.6 62.1 57.175 0 33.975-33.075 48.025-95.7 48.025-92.575 0-131.1-48.575-153.1-115.625L426 341.275C387.475 222.15 325.875 178 203.725 178 71.55 177.6-.05 262.625-.05 407.8c0 139.325 71.6 214.875 200.125 214.875 103.5 0 153.125-48.575 153.125-48.575l.075-.4z" style="fill:#b90000"/></svg>