<?xml version="1.0" encoding="utf-8"?><!-- Uploaded to: SVG Repo, www.svgrepo.com, Generator: SVG Repo Mixer Tools -->
<svg width="800px" height="800px" viewBox="0 0 1024 1024" xmlns="http://www.w3.org/2000/svg">
   <circle cx="512" cy="512" r="512" style="fill:#333"/>
   <path d="M439.84 511.58A72.58 72.58 0 0 1 512.41 439 72.54 72.54 0 0 1 585 511.58a72.56 72.56 0 0 1-72.57 72.56 72.56 72.56 0 0 1-72.57-72.56zm3.18 0A69.48 69.48 0 0 0 512.41 581a69.4 69.4 0 0 0 69.4-69.38 69.49 69.49 0 0 0-69.4-69.43A69.44 69.44 0 0 0 443 511.58zm69.42-11.44a11.43 11.43 0 1 0 11.47 11.45 11.45 11.45 0 0 0-11.48-11.45zm-131.08 11.43a130.68 130.68 0 0 0 40.3 94.43l24.68-26.69.33.3a94.59 94.59 0 0 1 113.08-149.95l17.51-31.95a130.23 130.23 0 0 0-64.82-17.22c-72.27.01-131.08 58.81-131.08 131.08zm225.73 0a94.6 94.6 0 0 1-138.64 83.79l-17.83 31.74a130.26 130.26 0 0 0 61.82 15.53c72.28 0 131.08-58.8 131.08-131.08a130.63 130.63 0 0 0-37.73-91.9L581 446.39a94.3 94.3 0 0 1 26.1 65.2zm-267.34 0a172.17 172.17 0 0 0 53.68 125l25-27.07a135.38 135.38 0 0 1-41.82-97.89c0-74.88 60.92-135.8 135.8-135.8a134.92 134.92 0 0 1 67.08 17.8l17.73-32.34a171.57 171.57 0 0 0-84.81-22.35c-95.19-.03-172.66 77.43-172.66 172.65zm308.49 0c0 74.88-60.92 135.8-135.8 135.8a135 135 0 0 1-64.14-16.14l-18.07 32.17a171.62 171.62 0 0 0 82.21 20.86c95.22 0 172.69-77.47 172.69-172.69a172.15 172.15 0 0 0-51-122.4l-25.12 27a135.35 135.35 0 0 1 39.23 95.4zm41.61 0c0 97.83-79.58 177.43-177.41 177.43a176.32 176.32 0 0 1-84.52-21.46l-18.18 32.36a213.21 213.21 0 0 0 102.7 26.23C630.74 726.11 727 629.87 727 511.57a213.87 213.87 0 0 0-64.38-153l-25.26 27.18a176.85 176.85 0 0 1 52.49 125.82zm-392 0A213.9 213.9 0 0 0 365 667.24L390.23 640A176.88 176.88 0 0 1 335 511.57c0-97.82 79.59-177.41 177.41-177.41a176.26 176.26 0 0 1 87.08 22.93l17.84-32.55A213.14 213.14 0 0 0 512.44 297c-118.3 0-214.54 96.28-214.54 214.57zm392.55-183-24.64 26.49a218.57 218.57 0 0 1 65.94 156.51c0 120.9-98.36 219.26-219.26 219.26a217.9 217.9 0 0 1-105-26.84l-18.24 32.47A255.43 255.43 0 0 0 512 768c141.39 0 256-114.64 256-256a255.23 255.23 0 0 0-77.55-183.41zm-397.27 183c0-120.9 98.36-219.26 219.26-219.26a217.84 217.84 0 0 1 107.19 28.09L637 288.65A254.46 254.46 0 0 0 516.12 256H512c-140.54.22-254.42 113.26-256 253.5v2.5a255.69 255.69 0 0 0 80.51 186.08l25.31-27.36a218.61 218.61 0 0 1-68.64-159.15z" style="fill:#fff"/>
</svg>