<!DOCTYPE svg PUBLIC "-//W3C//DTD SVG 1.1//EN" "http://www.w3.org/Graphics/SVG/1.1/DTD/svg11.dtd">
<svg xmlns="http://www.w3.org/2000/svg" xml:space="preserve" width="900" height="900">
  <g transform="matrix(7.9 0 0 7.9 450.48 449.69)">
    <path fill="#333" d="M0-54.1c-.2 0-.3 0-.5-.1.2.1.4.1.5.1zM-15.3 0c0-8.5 6.9-15.4 15.4-15.4S15.5-8.5 15.5 0 8.6 15.4.1 15.4-15.3 8.5-15.3 0zm.7 0C-14.6 8.1-8 14.7.1 14.7S14.8 8.1 14.8 0 8.2-14.7.1-14.7c-8.2 0-14.7 6.6-14.7 14.7z"/>
    <path fill="#333" d="M2.5 0c0 1.3-1.1 2.4-2.4 2.4-1.3 0-2.4-1.1-2.4-2.4 0-1.3 1.1-2.4 2.4-2.4 1.3 0 2.4 1.1 2.4 2.4z"/>
    <path fill="none" d="M.1-20.1C-11-20.1-20-11.1-20 0c0 5.7 2.4 10.8 6.1 14.4l-.1-.1-5.2 5.7c1.8 1.8 3.9 3.3 6.1 4.5l3.8-6.7c2.8 1.5 6 2.3 9.3 2.3 11.1 0 20-9 20-20.1 0-5.4-2.1-10.2-5.5-13.8l5.3-5.7c-1.8-1.8-3.8-3.4-6-4.7l-3.7 6.8c-3-1.7-6.4-2.7-10-2.7zm-25.9 47.3-5.3 5.8c2.8 2.7 6 5 9.5 6.9l3.9-6.9c-3.1-1.6-5.7-3.5-8.1-5.8zm52.3-53.9 5.3-5.8c-2.9-2.8-6.1-5.2-9.6-7.2l-3.8 6.9c3 1.7 5.7 3.8 8.1 6.1zm-6 6.5 5.3-5.7c-2.3-2.3-4.9-4.3-7.8-5.9L14.2-25c2.4 1.3 4.5 2.9 6.3 4.8zm-40.3 40.9-5.3 5.7c2.3 2.2 4.9 4.1 7.8 5.7l3.8-6.8c-2.3-1.2-4.5-2.8-6.3-4.6z"/>
    <path fill="#333" d="M-27.7 0c0 7.9 3.3 14.9 8.5 20l5.2-5.7.1.1C-17.7 10.8-20 5.7-20 0c0-11.1 9-20.1 20.1-20.1 3.7 0 7.1 1 10 2.7l3.7-6.8C9.7-26.5 5.1-27.8.1-27.8c-15.3 0-27.8 12.5-27.8 27.8zm47.8 0c0 11.1-9 20.1-20 20.1-3.4 0-6.5-.8-9.3-2.3l-3.8 6.7c3.9 2.1 8.4 3.3 13.1 3.3 15.3 0 27.8-12.5 27.8-27.8 0-7.6-3.1-14.5-8-19.5l-5.3 5.7C18-10.2 20.1-5.4 20.1 0z"/>
    <path fill="#333" d="M-36.5 0c0 10.4 4.4 19.8 11.4 26.5l5.3-5.7c-5.5-5.2-8.9-12.6-8.9-20.7 0-15.9 12.9-28.8 28.8-28.8 5.2 0 10 1.4 14.2 3.8l3.8-6.8c-5.3-3-11.4-4.7-18-4.7-20.2-.2-36.6 16.2-36.6 36.4zm65.3 0c0 15.9-12.9 28.8-28.8 28.8-4.9 0-9.5-1.2-13.6-3.4l-3.8 6.8C-12.2 35-6.3 36.6 0 36.6c20.2 0 36.6-16.4 36.6-36.6 0-10.1-4.1-19.3-10.8-25.9l-5.3 5.7C25.7-15 28.8-7.9 28.8 0z"/>
    <path fill="#333" d="M37.6 0c0 20.7-16.9 37.6-37.6 37.6-6.5 0-12.6-1.6-17.9-4.5l-3.9 6.9c6.5 3.5 13.9 5.6 21.8 5.6 25.1 0 45.4-20.4 45.4-45.4 0-12.7-5.2-24.2-13.6-32.4l-5.3 5.8c6.9 6.5 11.1 16 11.1 26.4zm-83 0c0 13 5.5 24.7 14.2 33l5.3-5.8C-33.1 20.4-37.6 10.7-37.6 0c0-20.7 16.9-37.6 37.6-37.6 6.7 0 13 1.8 18.4 4.9l3.8-6.9C15.6-43.3 8-45.4 0-45.4-25-45.5-45.4-25.1-45.4 0z"/>
    <path fill="#333" d="m37.8-38.8-5.2 5.6c8.6 8.4 14 20.2 14 33.1 0 25.6-20.8 46.4-46.4 46.4-8.1 0-15.6-2.1-22.2-5.7l-3.9 6.9c7.7 4.2 16.6 6.7 26 6.7C30 54.2 54.3 29.9 54.3 0c-.1-15.2-6.4-28.9-16.5-38.8zM-46.4 0c0-25.6 20.8-46.4 46.4-46.4 8.2 0 16 2.2 22.7 6l3.7-6.7C18.8-51.4 10.1-53.9.8-54h-.9C-29.9-54-54-30-54.3-.3v.5c0 15.5 6.6 29.5 17.1 39.4l5.4-5.8c-9-8.6-14.6-20.5-14.6-33.8z"/>
  </g>
</svg>