<svg width="16" height="16" viewBox="0 0 16 16" fill="none" xmlns="http://www.w3.org/2000/svg">
<g id="cancel">
<path id="Vector" fill-rule="evenodd" clip-rule="evenodd" d="M15 8C15 11.866 11.866 15 8 15C4.13401 15 1 11.866 1 8C1 4.13401 4.13401 1 8 1C11.866 1 15 4.13401 15 8ZM10.3128 12.4341C9.62116 12.7956 8.83445 13 8 13C5.23858 13 3 10.7614 3 8C3 7.16555 3.20441 6.37884 3.56589 5.68722L10.3128 12.4341ZM12.4341 10.3128L5.68721 3.5659C6.37884 3.20441 7.16555 3 8 3C10.7614 3 13 5.23858 13 8C13 8.83445 12.7956 9.62116 12.4341 10.3128Z" />
</g>
</svg>
