<svg width="24px" height="24px" fill="#000000" version="1.1" viewBox="0 0 24 24" xmlns="http://www.w3.org/2000/svg">
 <path d="m12 2c-5.514 0-10 4.486-10 10s4.486 10 10 10 10-4.486 10-10-4.486-10-10-10zm-4.8984 3.6875 2.1445 2.1445c-0.561 0.372-1.0421 0.85306-1.4141 1.4141l-2.1445-2.1445c0.411-0.529 0.88606-1.0031 1.4141-1.4141zm4.8984 3.3125c1.654 0 3 1.346 3 3s-1.346 3-3 3-3-1.346-3-3 1.346-3 3-3zm0 2a1 1 0 0 0-1 1 1 1 0 0 0 1 1 1 1 0 0 0 1-1 1 1 0 0 0-1-1zm4.168 3.7539 2.1445 2.1445c-0.411 0.528-0.88606 1.0031-1.4141 1.4141l-2.1445-2.1445c0.561-0.372 1.0421-0.85306 1.4141-1.4141z"/>
</svg>
