<svg width="16" height="16" viewBox="0 0 16 16" fill="none" xmlns="http://www.w3.org/2000/svg">
<g id="hamburger">
<g id="Vector">
<path d="M1 4C1 3.44772 1.44772 3 2 3H14C14.5523 3 15 3.44772 15 4C15 4.55228 14.5523 5 14 5H2C1.44772 5 1 4.55228 1 4Z" />
<path d="M1 8C1 7.44772 1.44772 7 2 7H14C14.5523 7 15 7.44772 15 8C15 8.55228 14.5523 9 14 9H2C1.44772 9 1 8.55228 1 8Z" />
<path d="M1 12C1 11.4477 1.44772 11 2 11H14C14.5523 11 15 11.4477 15 12C15 12.5523 14.5523 13 14 13H2C1.44772 13 1 12.5523 1 12Z" />
</g>
</g>
</svg>
