<svg width="16" height="16" viewBox="0 0 16 16" fill="none" xmlns="http://www.w3.org/2000/svg">
<g id="heart-empty">
<path id="Vector" fill-rule="evenodd" clip-rule="evenodd" d="M8.00001 5.58334C7.63472 5.58334 7.29849 5.38416 7.12299 5.06379L7.04561 4.92255C5.87568 2.78696 2.65735 3.39035 2.34047 5.80469C2.16273 7.15892 2.64244 8.5166 3.6315 9.45856L8.00001 13.619L12.3685 9.45856C13.3576 8.5166 13.8373 7.15892 13.6595 5.80469C13.3427 3.39035 10.1243 2.78696 8.9544 4.92255L8.87703 5.06379C8.70152 5.38416 8.3653 5.58334 8.00001 5.58334ZM7.36881 3.67676C7.54652 3.86466 7.70897 4.07838 7.85212 4.31869C7.87617 4.35907 7.89969 4.40021 7.92263 4.4421L8.00001 4.58334L8.07738 4.4421C8.10033 4.40021 8.12384 4.35907 8.1479 4.31869C8.29105 4.07838 8.4535 3.86466 8.63121 3.67676C10.5508 1.64703 14.2515 2.63057 14.651 5.67456C14.8703 7.34541 14.2785 9.02051 13.0582 10.1827L8.34484 14.6716C8.15173 14.8555 7.84829 14.8555 7.65518 14.6716L2.94184 10.1827C1.72154 9.02051 1.12968 7.34541 1.34897 5.67456C1.7485 2.63057 5.44917 1.64703 7.36881 3.67676Z" />
</g>
</svg>
