<svg width="76pt" height="65.148pt" version="1.1" viewBox="0 0 76 65.148" xmlns="http://www.w3.org/2000/svg">
<g transform="translate(-12,-18)">
<path d="m29.996 18c-1.625 0-3.2422.24219-4.8203.73828-8.0703 2.543-13.176 10.988-13.176 21.266 0 9.9531 6.582 19.02 14.484 26.422 7.8984 7.3984 17.203 13.172 23.027 16.445l.49219.27734.48828-.27734c5.8242-3.2734 15.129-9.0469 23.027-16.445 7.9023-7.3984 14.48-16.469 14.48-26.422 0-10.277-5.1055-18.723-13.172-21.262-8.4922-2.6719-17.746 2.2656-24.734 12.234h-.0039v.0039c.01563-.02344-.19141-.02344-.17578-.0039h-.0039c-5.6836-8.1055-12.805-12.977-19.914-12.977zm0 2c6.1836 0 12.828 4.3516 18.273 12.117.84375 1.2109 2.6211 1.2148 3.4609 0 6.6992-9.543 15.078-13.801 22.496-11.469 7.0859 2.2305 11.773 9.7344 11.773 19.355 0 9.0625-6.1367 17.742-13.848 24.961-7.5273 7.0508-16.391 12.594-22.152 15.859-5.7578-3.2656-14.621-8.8086-22.152-15.859-7.707-7.2188-13.848-15.898-13.848-24.961 0-9.6211 4.6875-17.121 11.773-19.355 1.3906-.4375 2.7969-.64844 4.2227-.64844zm-.3125 3c-1.0898 0-2.1719.16797-3.2188.49219-5.8008 1.8281-9.4648 8.2578-9.4648 16.246 0 8.1016 5.707 15.875 12.613 22.395 6.9102 6.5195 15.059 11.793 20.133 14.797.16016.09375.35156.09375.51172 0 4.7734-2.8281 12.277-7.6641 18.902-13.66 6.6211-5.9961 12.398-13.141 13.609-20.691.03516-.17969-.02734-.36328-.16797-.48047-.14062-.11719-.33594-.15234-.50391-.08203-.17188.06641-.29297.22266-.3125.40234-1.1484 7.1523-6.7539 14.188-13.297 20.109-6.4492 5.8359-13.738 10.555-18.484 13.379-5.0508-3.0039-12.977-8.1523-19.703-14.5-6.8164-6.4336-12.301-14.043-12.301-21.668 0-7.6836 3.4922-13.633 8.7656-15.289.94922-.29688 1.9297-.44922 2.918-.44922 4.7227 0 10.176 3.5273 14.82 10.145 1.2383 1.7852 3.2969 2.8477 5.5039 2.8477h.0078c2.207 0 4.2656-1.0625 5.4844-2.8242 2.8164-4.0195 5.9062-6.8906 8.957-8.5312 3.0508-1.6367 6.0469-2.0469 8.7773-1.1914 2.9258.92188 5.2891 3.1484 6.832 6.2734.07422.16797.23438.28516.41797.29688.18359.01563.35938-.07031.45703-.22656.10156-.15234.10938-.34766.02344-.51172-1.6406-3.3242-4.2109-5.7695-7.4297-6.7852-3.0234-.94531-6.3203-.46875-9.5508 1.2656-3.2344 1.7344-6.418 4.7227-9.3047 8.8359h-.0039c-1.0273 1.4844-2.7773 2.3984-4.6602 2.3984h-.0078c-1.8867 0-3.6328-.90625-4.6836-2.418-.0039 0-.0039 0-.0039-.0039-4.7578-6.7774-10.426-10.57-15.637-10.57zm51.637 8.9922c-.16016.01172-.30469.09375-.39062.22266-.08984.13281-.10938.30078-.05469.44922.21875.625.40625 1.2734.55859 1.9492.03516.18359.16406.33203.33984.38672.17578.05859.37109.01172.50391-.11719.13281-.125.18359-.32031.13281-.49609-.16406-.70703-.36328-1.3906-.58984-2.0508-.07422-.21094-.27734-.35156-.5-.33984zm.94141 4c-.14062.0078-.27344.07422-.36328.18359-.08984.10938-.12891.25-.10547.39062.13672 1.0195.20703 2.0781.20703 3.1719 0 .24609-.0039.49219-.01563.74219-.01563.17969.07031.35938.22266.46094.15234.10156.35156.10938.51172.02344.16406-.08984.26562-.25781.26562-.44531.007818-.25781.01563-.51953.01563-.78125 0-1.1367-.074219-2.2383-.21484-3.3047-.035156-.26172-.26172-.45312-.52344-.44141z"/>
</g>
</svg>
