<svg width="16" height="16" viewBox="0 0 16 16" fill="none" xmlns="http://www.w3.org/2000/svg">
<path d="M5 8C5 8.82843 4.32843 9.5 3.5 9.5C2.67157 9.5 2 8.82843 2 8C2 7.17157 2.67157 6.5 3.5 6.5C4.32843 6.5 5 7.17157 5 8Z"/>
<path d="M9.5 8C9.5 8.82843 8.82843 9.5 8 9.5C7.17157 9.5 6.5 8.82843 6.5 8C6.5 7.17157 7.17157 6.5 8 6.5C8.82843 6.5 9.5 7.17157 9.5 8Z"/>
<path d="M14 8C14 8.82843 13.3284 9.5 12.5 9.5C11.6716 9.5 11 8.82843 11 8C11 7.17157 11.6716 6.5 12.5 6.5C13.3284 6.5 14 7.17157 14 8Z"/>
</svg>
