<svg width="16" height="16" viewBox="0 0 16 16" fill="none" xmlns="http://www.w3.org/2000/svg">
<g id="more-options">
<g id="Vector">
<path d="M5 8C5 9.10457 4.10457 10 3 10C1.89543 10 1 9.10457 1 8C1 6.89543 1.89543 6 3 6C4.10457 6 5 6.89543 5 8Z" />
<path d="M10 8C10 9.10457 9.10457 10 8 10C6.89543 10 6 9.10457 6 8C6 6.89543 6.89543 6 8 6C9.10457 6 10 6.89543 10 8Z" />
<path d="M15 8C15 9.10457 14.1046 10 13 10C11.8954 10 11 9.10457 11 8C11 6.89543 11.8954 6 13 6C14.1046 6 15 6.89543 15 8Z" />
</g>
</g>
</svg>
