<svg width="20" height="23.966" fill="#000000" version="1.1" viewBox="0 0 20 23.966" xmlns="http://www.w3.org/2000/svg">
	<path d="m19 0-13 4.625c-.55078.18359-1 .79297-1 1.3438v11.812c-.45312-.074219-.96484-.066406-1.5.0625-1.9336.47266-3.5 2.2188-3.5 3.875s1.5664 2.5977 3.5 2.125c1.9102-.46484 3.4609-2.1445 3.5-3.7812v-.0625-11.719l11-3.9375v10.438c-.45312-.07422-.96484-.06641-1.5.0625-1.9336.47266-3.5 2.2188-3.5 3.875s1.5664 2.5977 3.5 2.125 3.5-2.1875 3.5-3.8438v-16c0-.55078-.44922-1-1-1z"/>
</svg>
