<svg width="16" height="16" viewBox="0 0 16 16" fill="none" xmlns="http://www.w3.org/2000/svg">
<g id="playlist" clip-path="url(#clip0)">
<g id="Vector">
<path d="M7.93333 7.2C8.46667 7.6 8.46667 8.4 7.93333 8.8L2.6 12.8C1.94076 13.2944 1 12.824 1 12L1 4C1 3.17595 1.94076 2.70557 2.6 3.2L7.93333 7.2Z" />
<path d="M9 6.5C9 6.22386 9.22386 6 9.5 6H15.5C15.7761 6 16 6.22386 16 6.5C16 6.77614 15.7761 7 15.5 7H9.5C9.22386 7 9 6.77614 9 6.5Z" />
<path d="M9 3.5C9 3.22386 9.22386 3 9.5 3H15.5C15.7761 3 16 3.22386 16 3.5C16 3.77614 15.7761 4 15.5 4H9.5C9.22386 4 9 3.77614 9 3.5Z" />
<path d="M9 9.5C9 9.22386 9.22386 9 9.5 9H15.5C15.7761 9 16 9.22386 16 9.5C16 9.77614 15.7761 10 15.5 10H9.5C9.22386 10 9 9.77614 9 9.5Z" />
<path d="M9 12.5C9 12.2239 9.22386 12 9.5 12H15.5C15.7761 12 16 12.2239 16 12.5C16 12.7761 15.7761 13 15.5 13H9.5C9.22386 13 9 12.7761 9 12.5Z" />
</g>
</g>
<defs>
<clipPath id="clip0">
<rect width="16" height="16" fill="white"/>
</clipPath>
</defs>
</svg>
