<svg width="16" height="16" viewBox="0 0 16 16" fill="none" xmlns="http://www.w3.org/2000/svg">
<g id="play-last">
<g id="Vector">
<path d="M9.93333 7.2C10.4667 7.6 10.4667 8.4 9.93333 8.8L4.6 12.8C3.94076 13.2944 3 12.824 3 12L3 4C3 3.17595 3.94076 2.70557 4.6 3.2L9.93333 7.2Z" />
<path d="M13 9.5C13 9.22386 12.7761 9 12.5 9H11.5C11.2239 9 11 9.22386 11 9.5V11H9.5C9.22386 11 9 11.2239 9 11.5V12.5C9 12.7761 9.22386 13 9.5 13H11V14.5C11 14.7761 11.2239 15 11.5 15H12.5C12.7761 15 13 14.7761 13 14.5V13H14.5C14.7761 13 15 12.7761 15 12.5V11.5C15 11.2239 14.7761 11 14.5 11H13V9.5Z" />
</g>
</g>
</svg>
