<svg width="16" height="16" viewBox="0 0 16 16" fill="none" xmlns="http://www.w3.org/2000/svg">
<path d="M7.93333 7.2C8.46667 7.6 8.46667 8.4 7.93333 8.8L2.6 12.8C1.94076 13.2944 1 12.824 1 12L1 4C1 3.17595 1.94076 2.70557 2.6 3.2L7.93333 7.2Z"/>
<path d="M9 8.5C9 8.22386 9.22386 8 9.5 8H14.5C14.7761 8 15 8.22386 15 8.5C15 8.77614 14.7761 9 14.5 9H9.5C9.22386 9 9 8.77614 9 8.5Z"/>
<path d="M9 10.5C9 10.2239 9.22386 10 9.5 10H14.5C14.7761 10 15 10.2239 15 10.5C15 10.7761 14.7761 11 14.5 11H9.5C9.22386 11 9 10.7761 9 10.5Z"/>
<path d="M9 12.5C9 12.2239 9.22386 12 9.5 12H14.5C14.7761 12 15 12.2239 15 12.5C15 12.7761 14.7761 13 14.5 13H9.5C9.22386 13 9 12.7761 9 12.5Z"/>
</svg>
