<svg width="62.025" height="62.025" version="1.1" viewBox="0 0 496.2 496.2" xmlns="http://www.w3.org/2000/svg">
 <path d="m0 248.1c0-137 111.1-248.1 248.1-248.1s248.1 111.1 248.1 248.1-111.1 248.1-248.1 248.1-248.1-111.1-248.1-248.1z" fill="#32bea6"/>
 <path d="m383.6 206.6h-94.5v-93.9c0-4-3.2-7.2-7.2-7.2h-68.1c-4 0-7.2 3.2-7.2 7.2v93.9h-93.9c-4 0-7.2 3.2-7.2 7.2v69.2c0 4 3.2 7.2 7.2 7.2h93.9v93.4c0 4 3.2 7.2 7.2 7.2h68.1c4 0 7.2-3.2 7.2-7.2v-93.4h94.5c4 0 7.2-3.2 7.2-7.2v-69.2c0-4-3.3-7.2-7.2-7.2z" fill="#fff"/>
</svg>
