<svg width="16" height="16" viewBox="0 0 16 16" fill="none" xmlns="http://www.w3.org/2000/svg">
<g id="random" clip-path="url(#clip0)">
<g id="Vector">
<path d="M14 12V10H12V12H10V14L12 14V16H14V14H16V12H14Z" />
<path fill-rule="evenodd" clip-rule="evenodd" d="M5.40743 1.96655C6.88597 0.652293 9.11403 0.652293 10.5926 1.96655L10.6506 2.01811C12.436 3.60515 12.436 6.39485 10.6506 7.98189L9.94817 8.60625C9.34507 9.14234 9 9.91075 9 10.7177V11C9 11.5523 8.55228 12 8 12C7.44771 12 7 11.5523 7 11V10.7177C7 9.33947 7.58936 8.02705 8.61944 7.11143L9.32184 6.48707C10.2122 5.69561 10.2122 4.30439 9.32184 3.51293L9.26384 3.46137C8.54307 2.82069 7.45692 2.82069 6.73616 3.46137L6.55724 3.62041C5.89839 4.20605 5.81326 5.16992 6.2848 5.8547C6.44141 6.08214 6.48485 6.39393 6.31235 6.60956L5.68765 7.39043C5.51515 7.60606 5.19725 7.64298 5.00642 7.44339C3.58414 5.95572 3.64138 3.53637 5.22851 2.12559L5.40743 1.96655Z" />
<path d="M9 14C9 14.5523 8.55228 15 8 15C7.44771 15 7 14.5523 7 14C7 13.4477 7.44771 13 8 13C8.55228 13 9 13.4477 9 14Z" />
</g>
</g>
<defs>
<clipPath id="clip0">
<rect width="16" height="16" fill="white"/>
</clipPath>
</defs>
</svg>
