<svg width="16" height="16" viewBox="0 0 16 16" fill="none" xmlns="http://www.w3.org/2000/svg">
<g id="repeat">
<g id="Vector">
<path fill-rule="evenodd" clip-rule="evenodd" d="M1 8V11.5C1 11.7761 1.22386 12 1.5 12H2.5C2.77614 12 3 11.7761 3 11.5V8C3 6.89543 3.89543 6 5 6H9.5C9.77614 6 10 5.77614 10 5.5V4.5C10 4.22386 9.77614 4 9.5 4H5C2.79086 4 1 5.79086 1 8Z" />
<path fill-rule="evenodd" clip-rule="evenodd" d="M15 8V4.5C15 4.22386 14.7761 4 14.5 4L13.5 4C13.2239 4 13 4.22386 13 4.5V8C13 9.10457 12.1046 10 11 10L6.5 10C6.22386 10 6 10.2239 6 10.5V11.5C6 11.7761 6.22386 12 6.5 12L11 12C13.2091 12 15 10.2091 15 8Z" />
<path d="M11.4667 4.6C11.7333 4.8 11.7333 5.2 11.4667 5.4L8.8 7.4C8.47038 7.64721 8 7.41202 8 7V3C8 2.58798 8.47038 2.35279 8.8 2.6L11.4667 4.6Z" />
<path d="M4.53333 11.4C4.26667 11.2 4.26667 10.8 4.53333 10.6L7.2 8.6C7.52962 8.35279 8 8.58798 8 9V13C8 13.412 7.52962 13.6472 7.2 13.4L4.53333 11.4Z" />
</g>
</g>
</svg>
