<svg width="16" height="16" viewBox="0 0 16 16" fill="none" xmlns="http://www.w3.org/2000/svg">
<g id="shuffle">
<g id="Vector">
<path fill-rule="evenodd" clip-rule="evenodd" d="M8.58579 5C9.22608 4.35971 10.0945 4 11 4H12.5C12.7761 4 13 4.22386 13 4.5V5.5C13 5.77614 12.7761 6 12.5 6H11C10.6249 6 10.2652 6.149 10 6.41421L5.41421 11C4.77392 11.6403 3.90551 12 3 12H1.5C1.22386 12 1 11.7761 1 11.5V10.5C1 10.2239 1.22386 10 1.5 10H3C3.37507 10 3.73478 9.851 4 9.58579L8.58579 5Z" />
<path d="M15.4667 4.6C15.7333 4.8 15.7333 5.2 15.4667 5.4L12.8 7.4C12.4704 7.64721 12 7.41202 12 7V3C12 2.58798 12.4704 2.35279 12.8 2.6L15.4667 4.6Z" />
<path d="M15.4667 10.6C15.7333 10.8 15.7333 11.2 15.4667 11.4L12.8 13.4C12.4704 13.6472 12 13.412 12 13V9C12 8.58798 12.4704 8.35279 12.8 8.6L15.4667 10.6Z" />
<path d="M6.29289 5.87868L5.41421 5C4.77392 4.35971 3.90551 4 3 4H1.5C1.22386 4 1 4.22386 1 4.5V5.5C1 5.77614 1.22386 6 1.5 6H3C3.37507 6 3.73478 6.149 4 6.41421L4.87868 7.29289L6.29289 5.87868Z" />
<path d="M7.70711 10.1213L8.58579 11C9.22608 11.6403 10.0945 12 11 12H12.5C12.7761 12 13 11.7761 13 11.5V10.5C13 10.2239 12.7761 10 12.5 10H11C10.6249 10 10.2652 9.851 10 9.58579L9.12132 8.70711L7.70711 10.1213Z" />
</g>
</g>
</svg>
