<svg width="16" height="16" viewBox="0 0 16 16" fill="none" xmlns="http://www.w3.org/2000/svg">
<g id="star-empty">
<path id="Vector" fill-rule="evenodd" clip-rule="evenodd" d="M9.35552 6.72318L7.99737 3.54121L6.63146 6.72317L3.23673 7.04343L5.77643 9.5349L5.06372 12.981L7.99999 11.2349L10.9305 12.9776L10.2107 9.53489L12.7584 7.04344L9.35552 6.72318ZM5.94666 5.78334L2.0714 6.14892C1.64791 6.18888 1.46456 6.70576 1.76821 7.00364L4.68665 9.86667L3.85471 13.8892C3.76668 14.3149 4.22629 14.6424 4.59991 14.4202L7.99999 12.3983L11.3972 14.4185C11.7712 14.641 12.2312 14.3124 12.1422 13.8864L11.3017 9.86667L14.2288 7.0042C14.5332 6.7065 14.3499 6.18882 13.926 6.14892L10.0417 5.78334L8.45854 2.07432C8.28589 1.66982 7.71271 1.66923 7.53922 2.07338L5.94666 5.78334Z" />
</g>
</svg>
