<svg width="16" height="16" viewBox="0 0 16 16" fill="none" xmlns="http://www.w3.org/2000/svg">
<g id="star-full">
<path id="Vector" d="M7.53922 2.07338C7.71271 1.66923 8.28589 1.66982 8.45854 2.07432L9.92486 5.5097C9.99683 5.67832 10.1553 5.79403 10.3379 5.81121L13.926 6.14892C14.3499 6.18882 14.5332 6.7065 14.2288 7.0042L11.4976 9.67508C11.3755 9.79443 11.3228 9.9678 11.3577 10.1349L12.1422 13.8864C12.2312 14.3124 11.7712 14.641 11.3972 14.4185L8.25555 12.5503C8.09804 12.4566 7.90193 12.4566 7.74443 12.5503L4.59991 14.4202C4.22629 14.6424 3.76668 14.3149 3.85471 13.8892L4.6314 10.1338C4.66584 9.9673 4.61329 9.7947 4.49191 9.67563L1.76821 7.00364C1.46456 6.70576 1.64791 6.18888 2.0714 6.14892L5.65122 5.81121C5.83334 5.79402 5.99155 5.67875 6.06371 5.51065L7.53922 2.07338Z" />
</g>
</svg>
