<svg width="16" height="16" viewBox="0 0 16 16" fill="none" xmlns="http://www.w3.org/2000/svg">
<g id="volume-down">
<g id="Vector">
<path d="M5.5 11H3C2.44772 11 2 10.5523 2 9.99999V5.99999C2 5.44771 2.44772 4.99999 3 4.99999H5.5L9.22265 2.51823C9.55493 2.29671 10 2.5349 10 2.93425V13.0657C10 13.4651 9.55493 13.7033 9.22265 13.4818L5.5 11Z" fill="#C4C4C4"/>
<path d="M14.2625 9.8988C13.9787 9.81743 13.8307 9.50767 13.9117 9.22378C14.0363 8.78714 14.1029 8.3261 14.1029 7.84948C14.1029 7.27197 14.005 6.71732 13.8249 6.20124C13.7293 5.92723 13.8525 5.61489 14.1238 5.51181C14.3681 5.41901 14.6447 5.53066 14.735 5.77586C14.973 6.42211 15.1029 7.12062 15.1029 7.84948C15.1029 8.45707 15.0126 9.04357 14.8447 9.59629C14.7703 9.84131 14.5086 9.96938 14.2625 9.8988Z" fill="#C4C4C4"/>
<path d="M11.4301 9.08665C11.6958 9.16283 11.9756 9.00925 12.0244 8.73721C12.076 8.4491 12.1029 8.15244 12.1029 7.84948C12.1029 7.51788 12.0707 7.19382 12.0091 6.88027C11.9535 6.59736 11.647 6.45281 11.3775 6.55521C11.1334 6.64795 11.0017 6.91396 11.0457 7.17135C11.0833 7.39177 11.1029 7.61833 11.1029 7.84948C11.1029 8.05758 11.0871 8.26196 11.0564 8.46148C11.0146 8.73416 11.1649 9.01061 11.4301 9.08665Z" fill="#C4C4C4"/>
</g>
</g>
</svg>
