<svg width="16" height="16" viewBox="0 0 16 16" fill="none" xmlns="http://www.w3.org/2000/svg">
<g id="volume-up">
<g id="Vector">
<path d="M3.5 11H1C0.447715 11 0 10.5523 0 10V6C0 5.44772 0.447715 5 1 5H3.5L7.22265 2.51823C7.55493 2.29672 8 2.53491 8 2.93426V13.0657C8 13.4651 7.55493 13.7033 7.22265 13.4818L3.5 11Z" fill="#C4C4C4"/>
<path d="M12.1696 10.7516C12.0359 10.993 11.7237 11.054 11.494 10.9009C11.2641 10.7476 11.2046 10.4379 11.3343 10.1939C11.7062 9.49469 11.9169 8.69669 11.9169 7.84948C11.9169 7.00227 11.7062 6.20427 11.3343 5.50503C11.2046 5.26107 11.2641 4.95133 11.494 4.79805C11.7237 4.64497 12.0359 4.70594 12.1696 4.94737C12.6458 5.80742 12.9169 6.79679 12.9169 7.84948C12.9169 8.90217 12.6458 9.89154 12.1696 10.7516Z" fill="#C4C4C4"/>
<path d="M13.6019 11.5983C13.4087 11.8394 13.4455 12.2019 13.7026 12.3733C13.9041 12.5076 14.1749 12.4769 14.3286 12.2898C15.3211 11.0816 15.9169 9.53511 15.9169 7.84948C15.9169 6.16385 15.3211 4.61737 14.3286 3.40916C14.1749 3.22202 13.9041 3.19135 13.7026 3.32569C13.4455 3.49708 13.4087 3.85953 13.6019 4.10066C14.4247 5.12768 14.9169 6.4311 14.9169 7.84948C14.9169 9.26786 14.4247 10.5713 13.6019 11.5983Z" fill="#C4C4C4"/>
<path d="M9.7758 6.66518C9.70007 6.35338 9.33577 6.2369 9.06879 6.41488L9.0437 6.43161C8.8584 6.55514 8.78038 6.78576 8.82726 7.00347C8.88598 7.27618 8.91689 7.55922 8.91689 7.84948C8.91689 8.13974 8.88598 8.42278 8.82726 8.69549C8.78038 8.9132 8.8584 9.14382 9.0437 9.26735L9.06879 9.28408C9.33577 9.46206 9.70007 9.34558 9.7758 9.03378C9.86802 8.65412 9.91689 8.25751 9.91689 7.84948C9.91689 7.44145 9.86802 7.04484 9.7758 6.66518Z" fill="#C4C4C4"/>
</g>
</g>
</svg>
