<svg width="16" height="16" viewBox="0 0 16 16" fill="none" xmlns="http://www.w3.org/2000/svg">
<g id="volume-mute">
<g id="Vector">
<path fill-rule="evenodd" clip-rule="evenodd" d="M4.5 11H2C1.44772 11 1 10.5523 1 9.99999V5.99999C1 5.44771 1.44772 4.99999 2 4.99999H4.5L8.22265 2.51823C8.55493 2.29671 9 2.5349 9 2.93425V13.0657C9 13.4651 8.55493 13.7033 8.22265 13.4818L4.5 11Z" />
<path fill-rule="evenodd" clip-rule="evenodd" d="M10.6464 5.64645C10.8417 5.45118 11.1583 5.45118 11.3536 5.64645L13 7.29289L14.6464 5.64645C14.8417 5.45118 15.1583 5.45118 15.3536 5.64645C15.5488 5.84171 15.5488 6.15829 15.3536 6.35355L13.7071 8L15.3536 9.64645C15.5488 9.84171 15.5488 10.1583 15.3536 10.3536C15.1583 10.5488 14.8417 10.5488 14.6464 10.3536L13 8.70711L11.3536 10.3536C11.1583 10.5488 10.8417 10.5488 10.6464 10.3536C10.4512 10.1583 10.4512 9.84171 10.6464 9.64645L12.2929 8L10.6464 6.35355C10.4512 6.15829 10.4512 5.84171 10.6464 5.64645Z" />
</g>
</g>
</svg>
